<svg width="124" height="80" viewBox="0 0 124 80" fill="none" xmlns="http://www.w3.org/2000/svg">
<g clip-path="url(#clip0_41_83)">
<path d="M21.2899 58.1378H25.1797L30.0424 72.8181L34.9489 58.1378H38.8368L42.3546 79.1841H38.4934L36.2443 65.8914L31.7879 79.1841H28.2682L23.85 65.8914L21.5474 79.1841H17.6538L21.2861 58.1378H21.2899Z" fill="white"/>
<path d="M45.552 58.1378H49.3826L58.3583 71.9875V58.1378H62.3511V79.1841H58.511L49.5448 65.3765V79.1841H45.552V58.1378Z" fill="white"/>
<path d="M67.1565 58.1378H70.9871L79.9628 71.9875V58.1378H83.9556V79.1841H80.1154L71.1493 65.3765V79.1841H67.1565V58.1378Z" fill="white"/>
<path d="M108.029 61.8356L105.236 64.5076C103.336 62.4921 101.199 61.4854 98.8241 61.4854C96.821 61.4854 95.1327 62.1725 93.7592 63.5487C92.3856 64.9229 91.7008 66.6187 91.7008 68.6322C91.7008 70.0352 92.0041 71.2812 92.6126 72.3703C93.2212 73.4574 94.0816 74.313 95.1918 74.9331C96.3021 75.5533 97.5383 75.8633 98.8966 75.8633C100.055 75.8633 101.115 75.6471 102.073 75.2126C103.032 74.7781 104.087 73.9876 105.236 72.843L107.943 75.6777C106.392 77.1955 104.929 78.2482 103.551 78.8339C102.172 79.4196 100.6 79.7143 98.8298 79.7143C95.5696 79.7143 92.8988 78.6769 90.8232 76.6021C88.7457 74.5274 87.7061 71.8688 87.7061 68.6246C87.7061 66.5268 88.1792 64.6607 89.1254 63.03C90.0716 61.3973 91.4261 60.0862 93.1888 59.0948C94.9515 58.1033 96.8515 57.6076 98.887 57.6076C100.617 57.6076 102.283 57.9732 103.885 58.7062C105.488 59.4393 106.867 60.4824 108.029 61.8337V61.8356Z" fill="white"/>
<path d="M63.1084 47.0581L69.9875 33.6046C69.7643 33.3749 67.4503 32.5921 67.0611 32.5576C66.1969 32.3567 65.3327 32.2552 64.4609 32.2552C62.103 32.2552 59.9034 32.9136 58.0339 34.0467L44.0944 7H40.2409V34.108L35.9352 7L32.8161 7.49955L39.3175 48.4343L3.8688 12.1276L0 12.7458L7.42092 57.5086L10.54 57.009L3.844 16.815L40.2313 54.1916H40.2409V54.2815H43.4V12.9583L61.0881 47.0581H63.1103H63.1084ZM64.4609 35.1473C64.8806 35.1473 65.2984 35.1798 65.7105 35.243L62.2232 42.1774L59.4132 36.7263C60.884 35.7387 62.6295 35.1473 64.459 35.1473H64.4609Z" fill="white"/>
<path d="M120.131 12.1276L84.6825 48.4343L91.1859 7.49955L88.0668 7L83.7687 34.062V7H80.1041L68.7075 29.4244C69.3542 29.6847 69.9685 30.0331 70.5122 30.414C70.7945 30.613 71.0731 30.8236 71.344 31.0437L80.6096 13.0214V54.2835H83.7687V54.1935L120.156 16.8169L113.47 57.0109L116.589 57.5105L124.002 12.7477L120.133 12.1295L120.131 12.1276Z" fill="white"/>
<path d="M64.461 53.359C59.5506 53.359 55.2449 49.0774 55.2449 44.1967C55.2449 43.0349 55.5006 41.9094 55.9489 40.8663C55.2869 39.8997 54.644 38.9198 54.0622 37.9034C52.8851 39.7409 52.1926 41.9018 52.1926 44.2235C52.1926 50.8555 57.6963 56.251 64.461 56.251C66.2886 56.251 68.118 55.807 69.9017 54.9285L70.3539 54.7045V51.2498L69.131 51.9771C67.5915 52.8939 66.0196 53.3571 64.461 53.3571V53.359Z" fill="white"/>
</g>
<defs>
<clipPath id="clip0_41_83">
<rect width="124" height="79.7143" fill="white"/>
</clipPath>
</defs>
</svg>
